<?xml version="1.0" encoding="UTF-8" standalone="no"?>
<!-- Created with Inkscape (http://www.inkscape.org/) -->

<svg
   xmlns:dc="http://purl.org/dc/elements/1.1/"
   xmlns:cc="http://creativecommons.org/ns#"
   xmlns:rdf="http://www.w3.org/1999/02/22-rdf-syntax-ns#"
   xmlns:svg="http://www.w3.org/2000/svg"
   xmlns="http://www.w3.org/2000/svg"
   xmlns:sodipodi="http://sodipodi.sourceforge.net/DTD/sodipodi-0.dtd"
   xmlns:inkscape="http://www.inkscape.org/namespaces/inkscape"
   width="35"
   height="35"
   viewBox="0 0 35 35.000001"
   id="svg2"
   version="1.1"
   inkscape:version="0.91 r13725"
   sodipodi:docname="html.svg">
  <defs
     id="defs4">
    <clipPath
       clipPathUnits="userSpaceOnUse"
       id="clipPath4767">
      <path
         style="fill:none;fill-rule:evenodd;stroke:#000000;stroke-width:6.058002px;stroke-linecap:butt;stroke-linejoin:miter;stroke-opacity:1"
         d="M 35.446904,71.38035 553.62245,84.36174 467.07956,575.4924 41.937617,559.26604 Z"
         id="path4769"
         inkscape:connector-curvature="0" />
    </clipPath>
  </defs>
  <sodipodi:namedview
     id="base"
     pagecolor="#ffffff"
     bordercolor="#666666"
     borderopacity="1.0"
     inkscape:pageopacity="0.0"
     inkscape:pageshadow="2"
     inkscape:zoom="5.6"
     inkscape:cx="15.886029"
     inkscape:cy="34.382621"
     inkscape:document-units="px"
     inkscape:current-layer="layer1"
     showgrid="false"
     units="px"
     inkscape:window-width="1280"
     inkscape:window-height="961"
     inkscape:window-x="1358"
     inkscape:window-y="-8"
     inkscape:window-maximized="1" />
  <metadata
     id="metadata7">
    <rdf:RDF>
      <cc:Work
         rdf:about="">
        <dc:format>image/svg+xml</dc:format>
        <dc:type
           rdf:resource="http://purl.org/dc/dcmitype/StillImage" />
        <dc:title></dc:title>
      </cc:Work>
    </rdf:RDF>
  </metadata>
  <g
     inkscape:label="Layer 1"
     inkscape:groupmode="layer"
     id="layer1"
     transform="translate(0,-1017.3622)">
    <switch
       id="switch4711"
       transform="matrix(0.08077404,0,0,0.08077404,-2.99058,1010.7037)"
       clip-path="url(#clipPath4767)">
	<g
   id="g4713">
		<g
   id="g4715">
			<!-- If you would like to customize the color of the badge, these two HSL colors are the primary oranges -->

			<!--  The second one needs to be +6 hue, +9% saturation, and +3% lightness of the first -->

			<polygon
   id="polygon4717"
   points="107.644,470.877 74.633,100.62 437.367,100.62 404.321,470.819 255.778,512 "
   style="fill:#e34f26" />

			<polygon
   id="polygon4719"
   points="256,130.894 256,480.523 376.03,447.246 404.27,130.894 "
   style="fill:#ef6529" />

			<g
   id="g4721">
				<polygon
   id="polygon4723"
   points="255.843,176.305 142.132,176.305 143.219,188.488 154.38,313.627 256,313.627 256,268.217 195.91,268.217 191.76,221.716 256,221.716 256,176.305 "
   style="fill:#ebebeb" />

				<polygon
   id="polygon4725"
   points="162.771,407.634 255.791,433.457 256,433.399 256,386.153 255.801,386.206 205.227,372.55 201.994,336.333 177.419,336.333 156.409,336.333 "
   style="fill:#ebebeb" />

			</g>

			<g
   id="g4727">
				<path
   id="path4729"
   d="m 108.382,0 23.077,0 0,22.8 21.11,0 0,-22.8 23.078,0 0,69.044 -23.077,0 0,-23.12 -21.11,0 0,23.12 -23.077,0 0,-69.044 z"
   inkscape:connector-curvature="0" />

				<path
   id="path4731"
   d="m 205.994,22.896 -20.316,0 0,-22.896 63.72,0 0,22.896 -20.325,0 0,46.148 -23.078,0 0,-46.148 z"
   inkscape:connector-curvature="0" />

				<path
   id="path4733"
   d="m 259.511,0 24.063,0 14.802,24.26 14.787,-24.26 24.072,0 0,69.044 -22.982,0 0,-34.222 -15.877,24.549 -0.397,0 -15.888,-24.549 0,34.222 -22.58,0 0,-69.044 z"
   inkscape:connector-curvature="0" />

				<path
   id="path4735"
   d="m 348.72,0 23.084,0 0,46.222 32.453,0 0,22.822 -55.537,0 0,-69.044 z"
   inkscape:connector-curvature="0" />

			</g>

			<g
   id="g4737">
				<polygon
   id="polygon4739"
   points="255.843,386.191 255.843,433.435 348.937,407.634 349.62,399.962 360.291,280.411 361.399,268.217 349.162,268.217 255.843,268.217 255.843,313.627 311.761,313.627 306.49,372.521 "
   style="fill:#ffffff" />

				<polygon
   id="polygon4741"
   points="365.385,221.716 365.531,221.716 366.442,211.509 368.511,188.488 369.597,176.305 255.843,176.305 255.843,204.509 255.843,221.605 255.843,221.716 365.385,221.716 "
   style="fill:#ffffff" />

			</g>

		</g>

	</g>

</switch>
  </g>
</svg>
